<svg xmlns="http://www.w3.org/2000/svg" viewBox="0 1 151 106"><path d="M50 80.3h-4.6l-7.9-10.9-7.9 10.9H25l10.2-14.1-9.4-13h4.6l7.1 9.8 7.1-9.8h4.6l-9.4 13L50 80.3zm23.9-7.7a7 7 0 01-2.3 5.6 9.8 9.8 0 01-6.7 2.1H52.2V68.2h-6l2.5-3.5h3.5V53.2h12.2c2.7 0 4.8.7 6.3 1.9 1.5 1.3 2.2 3 2.2 5.1 0 2.6-1.2 4.6-3.5 5.9a7 7 0 013.4 2.5 7.7 7.7 0 011.1 4zm-17.6-7.8h7.8c1.6 0 2.7-.4 3.5-1 .8-.7 1.2-1.7 1.2-3.1 0-1.2-.4-2.1-1.2-2.8-.8-.7-2-1-3.5-1h-7.8v7.9zm13.4 7.7c0-1.4-.4-2.5-1.3-3.2-.8-.7-2.1-1.1-3.8-1.1h-8.3v8.5h8.3a6 6 0 003.8-1.1c.9-.7 1.3-1.7 1.3-3.1zm32-5.8c0 2.1-.3 4-.9 5.7-.6 1.7-1.5 3.2-2.7 4.5a11 11 0 01-4.2 2.9 15.3 15.3 0 01-10.8 0 11 11 0 01-4.2-2.9 12.9 12.9 0 01-2.7-4.5 17 17 0 01-.9-5.7c0-2.1.3-4 .9-5.7.6-1.7 1.5-3.2 2.7-4.5a11 11 0 014.2-2.9 15.3 15.3 0 0110.8 0c1.6.6 3 1.6 4.2 2.9 1.2 1.3 2.1 2.8 2.7 4.5.6 1.7.9 3.7.9 5.7zm-22.1 0c0 3.2.8 5.7 2.5 7.6a8 8 0 006.5 2.8c2.7 0 4.9-1 6.5-2.8 1.6-1.8 2.4-4.4 2.4-7.6 0-3.2-.8-5.8-2.4-7.6a8 8 0 00-6.5-2.8 8 8 0 00-6.5 2.8 11 11 0 00-2.5 7.6zm35.2-.5l9.4-13h-4.6l-7.1 9.8-7.1-9.8h-4.6l9.4 13-10.3 14.1h4.6l7.9-10.9 7.9 10.9h4.6l-10.1-14.1zM75 19.2c6.8 5.2 18.3 17.8 14.8 21.4a22.3 22.3 0 01-29.6 0c-3.6-3.6 8-16.2 14.8-21.4-.1 0-.1 0 0 0zM86.7 4.4a22.5 22.5 0 00-23.4 0s-.1.1 0 .1h.1c4.4-.9 11 2.8 11.6 3.2.6-.4 7.3-4.1 11.6-3.2h.1c.1 0 0 0 0-.1zM59.2 7.6s-.1.1 0 0A22.6 22.6 0 0057 37.3s.1.1.1 0v-.1c-1.7-5.3 7.1-18.2 11.6-23.6v-.1-.1c-6.8-6.7-9.1-6-9.5-5.8zm21.9 5.9s0 .1 0 0v.1c4.5 5.4 13.3 18.3 11.6 23.6v.1h.1a22.3 22.3 0 00-2.1-29.6l-.1-.1c-.2-.2-2.6-.9-9.5 5.9zM31.8 87.3h-3.3L21 106.4h3l1.8-5h8.5l1.8 5h3l-7.3-19.1zm-4.9 11.6l3.3-8.8 3.3 8.8h-6.6zm-7.4-2.6v10.1h-2.7v-2.5c-.7 1-1.6 1.7-2.6 2.2a8 8 0 01-3.6.7c-1.4 0-2.6-.2-3.7-.7A8.6 8.6 0 014 104c-.8-.9-1.5-2-1.9-3.2-.4-1.2-.6-2.6-.6-4 0-1.5.2-2.9.6-4.1A9.4 9.4 0 014 89.5c.9-.8 1.8-1.5 3-1.9 1.1-.5 2.4-.7 3.8-.7 2.3 0 4.3.6 5.8 1.8a7.5 7.5 0 012.7 4.9h-3a4.8 4.8 0 00-1.9-3c-1-.7-2.2-1.1-3.6-1.1-1.9 0-3.4.7-4.5 2s-1.7 3.1-1.7 5.4.6 4.1 1.7 5.4c1.1 1.3 2.7 2 4.6 2 1.6 0 3.1-.5 4.2-1.5s1.7-2.3 1.8-3.9h-5.6v-2.5h8.2zm46.8-6.4v5.5h9.5v2.4h-9.5v5.9H77v2.6H63.4v-19h13.7v2.6H66.3zm-5.8-2.6v19.1h-2.8V91.2l-1.4 3.9-4.3 11.2h-2.4l-4.4-11.2-1.4-3.9v15.1H41v-19h4l3.9 10.2 1.9 5.3 2-5.6 3.8-9.9h3.9zm36.8 1.6c-1.1-1.1-2.8-1.6-4.8-1.6h-8.1v19.1h2.9v-7h5.2c2.1 0 3.7-.5 4.8-1.6a6 6 0 001.7-4.4c.1-1.9-.5-3.4-1.7-4.5zm-10 1h5.2c1.2 0 2.1.3 2.7.9.6.6.9 1.5.9 2.6s-.3 2-.9 2.6c-.6.6-1.5.9-2.7.9h-5.2v-7zm44.1 11.2a5 5 0 01-2 4.2 9 9 0 01-5.5 1.5c-2.5 0-4.5-.6-5.9-1.7-1.4-1.1-2.1-2.8-2.1-5h2.9c0 1.4.5 2.5 1.3 3.2a6 6 0 003.8 1.1c1.4 0 2.5-.3 3.2-.8.7-.5 1.1-1.3 1.1-2.3 0-.8-.3-1.5-.9-1.9-.6-.5-1.8-.9-3.4-1.2l-1.6-.3c-2-.4-3.5-1-4.5-1.9-1-.9-1.5-2.1-1.5-3.7s.6-2.8 1.8-3.8a8.1 8.1 0 014.9-1.4c2.5 0 4.4.5 5.7 1.6a5.9 5.9 0 012 4.4H128c-.1-1.2-.5-2.1-1.2-2.7-.7-.6-1.9-.9-3.5-.9a5 5 0 00-2.9.7c-.6.5-1 1.1-1 2 0 .9.3 1.5.9 2 .6.5 1.7.9 3.3 1.2l1.7.3c2.2.5 3.8 1.1 4.7 2 .9.7 1.4 1.9 1.4 3.4zm17 0a5 5 0 01-2 4.2 9 9 0 01-5.5 1.5c-2.5 0-4.5-.6-5.9-1.7-1.4-1.1-2.1-2.8-2.1-5h2.9c0 1.4.5 2.5 1.3 3.2a6 6 0 003.8 1.1c1.4 0 2.5-.3 3.2-.8.7-.5 1.1-1.3 1.1-2.3 0-.8-.3-1.5-.9-1.9-.6-.5-1.8-.9-3.4-1.2l-1.6-.3c-2-.4-3.5-1-4.5-1.9-1-.9-1.5-2.1-1.5-3.7s.6-2.8 1.8-3.8a8.1 8.1 0 014.9-1.4c2.5 0 4.4.5 5.7 1.6a5.9 5.9 0 012 4.4H145c-.1-1.2-.5-2.1-1.2-2.7-.7-.6-1.9-.9-3.5-.9a5 5 0 00-2.9.7c-.6.5-1 1.1-1 2 0 .9.3 1.5.9 2 .6.5 1.7.9 3.3 1.2l1.7.3c2.2.5 3.8 1.1 4.7 2 .9.7 1.4 1.9 1.4 3.4zm-40.6-13.8h-3.3L97 106.4h3l1.8-5h8.5l1.8 5h3l-7.3-19.1zm-5 11.6l3.3-8.8 3.3 8.8h-6.6z" fill="#107c10"/></svg>